<svg xmlns="http://www.w3.org/2000/svg" width="493.87" height="695.87" viewBox="-246.93 -298.93 493.87 695.87"><rect x="-246.93" y="-298.93" width="493.87" height="695.87" fill="#ffffff"/><text x="0" y="-264.93" text-anchor="middle" font-family="system-ui,Segoe UI,Arial" font-size="26" font-weight="800" fill="#1c1c1c">Classic Granny Square</text><g class="stitches"><g transform="translate(0 0) rotate(0)"><circle cx="0" cy="0" r="15" stroke="#1c1c1c" stroke-width="2.4" stroke-linecap="round" fill="none"/></g><g transform="translate(0 -34) rotate(0)"><line x1="0" y1="0" x2="0" y2="-32" stroke="#c98a1a" stroke-width="2.4" stroke-linecap="round" fill="none"/><line x1="-7.5" y1="-32" x2="7.5" y2="-32" stroke="#c98a1a" stroke-width="2.4" stroke-linecap="round" fill="none"/><line x1="-6.5" y1="-14.2" x2="6.5" y2="-24.2" stroke="#c98a1a" stroke-width="2.4" stroke-linecap="round" fill="none"/></g><g transform="translate(24.04 -24.04) rotate(45)"><line x1="0" y1="0" x2="0" y2="-32" stroke="#c98a1a" stroke-width="2.4" stroke-linecap="round" fill="none"/><line x1="-7.5" y1="-32" x2="7.5" y2="-32" stroke="#c98a1a" stroke-width="2.4" stroke-linecap="round" fill="none"/><line x1="-6.5" y1="-14.2" x2="6.5" y2="-24.2" stroke="#c98a1a" stroke-width="2.4" stroke-linecap="round" fill="none"/></g><g transform="translate(34 0) rotate(90)"><line x1="0" y1="0" x2="0" y2="-32" stroke="#c98a1a" stroke-width="2.4" stroke-linecap="round" fill="none"/><line x1="-7.5" y1="-32" x2="7.5" y2="-32" stroke="#c98a1a" stroke-width="2.4" stroke-linecap="round" fill="none"/><line x1="-6.5" y1="-14.2" x2="6.5" y2="-24.2" stroke="#c98a1a" stroke-width="2.4" stroke-linecap="round" fill="none"/></g><g transform="translate(24.04 24.04) rotate(135)"><line x1="0" y1="0" x2="0" y2="-32" stroke="#c98a1a" stroke-width="2.4" stroke-linecap="round" fill="none"/><line x1="-7.5" y1="-32" x2="7.5" y2="-32" stroke="#c98a1a" stroke-width="2.4" stroke-linecap="round" fill="none"/><line x1="-6.5" y1="-14.2" x2="6.5" y2="-24.2" stroke="#c98a1a" stroke-width="2.4" stroke-linecap="round" fill="none"/></g><g transform="translate(0 34) rotate(180)"><line x1="0" y1="0" x2="0" y2="-32" stroke="#c98a1a" stroke-width="2.4" stroke-linecap="round" fill="none"/><line x1="-7.5" y1="-32" x2="7.5" y2="-32" stroke="#c98a1a" stroke-width="2.4" stroke-linecap="round" fill="none"/><line x1="-6.5" y1="-14.2" x2="6.5" y2="-24.2" stroke="#c98a1a" stroke-width="2.4" stroke-linecap="round" fill="none"/></g><g transform="translate(-24.04 24.04) rotate(225)"><line x1="0" y1="0" x2="0" y2="-32" stroke="#c98a1a" stroke-width="2.4" stroke-linecap="round" fill="none"/><line x1="-7.5" y1="-32" x2="7.5" y2="-32" stroke="#c98a1a" stroke-width="2.4" stroke-linecap="round" fill="none"/><line x1="-6.5" y1="-14.2" x2="6.5" y2="-24.2" stroke="#c98a1a" stroke-width="2.4" stroke-linecap="round" fill="none"/></g><g transform="translate(-34 0) rotate(270)"><line x1="0" y1="0" x2="0" y2="-32" stroke="#c98a1a" stroke-width="2.4" stroke-linecap="round" fill="none"/><line x1="-7.5" y1="-32" x2="7.5" y2="-32" stroke="#c98a1a" stroke-width="2.4" stroke-linecap="round" fill="none"/><line x1="-6.5" y1="-14.2" x2="6.5" y2="-24.2" stroke="#c98a1a" stroke-width="2.4" stroke-linecap="round" fill="none"/></g><g transform="translate(-24.04 -24.04) rotate(315)"><line x1="0" y1="0" x2="0" y2="-32" stroke="#c98a1a" stroke-width="2.4" stroke-linecap="round" fill="none"/><line x1="-7.5" y1="-32" x2="7.5" y2="-32" stroke="#c98a1a" stroke-width="2.4" stroke-linecap="round" fill="none"/><line x1="-6.5" y1="-14.2" x2="6.5" y2="-24.2" stroke="#c98a1a" stroke-width="2.4" stroke-linecap="round" fill="none"/></g><g transform="translate(-40 -74) rotate(0)"><line x1="0" y1="0" x2="0" y2="-32" stroke="#163a5f" stroke-width="2.4" stroke-linecap="round" fill="none"/><line x1="-7.5" y1="-32" x2="7.5" y2="-32" stroke="#163a5f" stroke-width="2.4" stroke-linecap="round" fill="none"/><line x1="-6.5" y1="-14.2" x2="6.5" y2="-24.2" stroke="#163a5f" stroke-width="2.4" stroke-linecap="round" fill="none"/></g><g transform="translate(74 -40) rotate(90)"><line x1="0" y1="0" x2="0" y2="-32" stroke="#163a5f" stroke-width="2.4" stroke-linecap="round" fill="none"/><line x1="-7.5" y1="-32" x2="7.5" y2="-32" stroke="#163a5f" stroke-width="2.4" stroke-linecap="round" fill="none"/><line x1="-6.5" y1="-14.2" x2="6.5" y2="-24.2" stroke="#163a5f" stroke-width="2.4" stroke-linecap="round" fill="none"/></g><g transform="translate(40 74) rotate(180)"><line x1="0" y1="0" x2="0" y2="-32" stroke="#163a5f" stroke-width="2.4" stroke-linecap="round" fill="none"/><line x1="-7.5" y1="-32" x2="7.5" y2="-32" stroke="#163a5f" stroke-width="2.4" stroke-linecap="round" fill="none"/><line x1="-6.5" y1="-14.2" x2="6.5" y2="-24.2" stroke="#163a5f" stroke-width="2.4" stroke-linecap="round" fill="none"/></g><g transform="translate(-74 40) rotate(270)"><line x1="0" y1="0" x2="0" y2="-32" stroke="#163a5f" stroke-width="2.4" stroke-linecap="round" fill="none"/><line x1="-7.5" y1="-32" x2="7.5" y2="-32" stroke="#163a5f" stroke-width="2.4" stroke-linecap="round" fill="none"/><line x1="-6.5" y1="-14.2" x2="6.5" y2="-24.2" stroke="#163a5f" stroke-width="2.4" stroke-linecap="round" fill="none"/></g><g transform="translate(0 -74) rotate(0)"><line x1="0" y1="0" x2="0" y2="-32" stroke="#163a5f" stroke-width="2.4" stroke-linecap="round" fill="none"/><line x1="-7.5" y1="-32" x2="7.5" y2="-32" stroke="#163a5f" stroke-width="2.4" stroke-linecap="round" fill="none"/><line x1="-6.5" y1="-14.2" x2="6.5" y2="-24.2" stroke="#163a5f" stroke-width="2.4" stroke-linecap="round" fill="none"/></g><g transform="translate(74 0) rotate(90)"><line x1="0" y1="0" x2="0" y2="-32" stroke="#163a5f" stroke-width="2.4" stroke-linecap="round" fill="none"/><line x1="-7.5" y1="-32" x2="7.5" y2="-32" stroke="#163a5f" stroke-width="2.4" stroke-linecap="round" fill="none"/><line x1="-6.5" y1="-14.2" x2="6.5" y2="-24.2" stroke="#163a5f" stroke-width="2.4" stroke-linecap="round" fill="none"/></g><g transform="translate(0 74) rotate(180)"><line x1="0" y1="0" x2="0" y2="-32" stroke="#163a5f" stroke-width="2.4" stroke-linecap="round" fill="none"/><line x1="-7.5" y1="-32" x2="7.5" y2="-32" stroke="#163a5f" stroke-width="2.4" stroke-linecap="round" fill="none"/><line x1="-6.5" y1="-14.2" x2="6.5" y2="-24.2" stroke="#163a5f" stroke-width="2.4" stroke-linecap="round" fill="none"/></g><g transform="translate(-74 0) rotate(270)"><line x1="0" y1="0" x2="0" y2="-32" stroke="#163a5f" stroke-width="2.4" stroke-linecap="round" fill="none"/><line x1="-7.5" y1="-32" x2="7.5" y2="-32" stroke="#163a5f" stroke-width="2.4" stroke-linecap="round" fill="none"/><line x1="-6.5" y1="-14.2" x2="6.5" y2="-24.2" stroke="#163a5f" stroke-width="2.4" stroke-linecap="round" fill="none"/></g><g transform="translate(40 -74) rotate(0)"><line x1="0" y1="0" x2="0" y2="-32" stroke="#163a5f" stroke-width="2.4" stroke-linecap="round" fill="none"/><line x1="-7.5" y1="-32" x2="7.5" y2="-32" stroke="#163a5f" stroke-width="2.4" stroke-linecap="round" fill="none"/><line x1="-6.5" y1="-14.2" x2="6.5" y2="-24.2" stroke="#163a5f" stroke-width="2.4" stroke-linecap="round" fill="none"/></g><g transform="translate(74 40) rotate(90)"><line x1="0" y1="0" x2="0" y2="-32" stroke="#163a5f" stroke-width="2.4" stroke-linecap="round" fill="none"/><line x1="-7.5" y1="-32" x2="7.5" y2="-32" stroke="#163a5f" stroke-width="2.4" stroke-linecap="round" fill="none"/><line x1="-6.5" y1="-14.2" x2="6.5" y2="-24.2" stroke="#163a5f" stroke-width="2.4" stroke-linecap="round" fill="none"/></g><g transform="translate(-40 74) rotate(180)"><line x1="0" y1="0" x2="0" y2="-32" stroke="#163a5f" stroke-width="2.4" stroke-linecap="round" fill="none"/><line x1="-7.5" y1="-32" x2="7.5" y2="-32" stroke="#163a5f" stroke-width="2.4" stroke-linecap="round" fill="none"/><line x1="-6.5" y1="-14.2" x2="6.5" y2="-24.2" stroke="#163a5f" stroke-width="2.4" stroke-linecap="round" fill="none"/></g><g transform="translate(-74 -40) rotate(270)"><line x1="0" y1="0" x2="0" y2="-32" stroke="#163a5f" stroke-width="2.4" stroke-linecap="round" fill="none"/><line x1="-7.5" y1="-32" x2="7.5" y2="-32" stroke="#163a5f" stroke-width="2.4" stroke-linecap="round" fill="none"/><line x1="-6.5" y1="-14.2" x2="6.5" y2="-24.2" stroke="#163a5f" stroke-width="2.4" stroke-linecap="round" fill="none"/></g><g transform="translate(74 -74) rotate(45)"><g transform="rotate(-28)"><line x1="0" y1="0" x2="0" y2="-32" stroke="#163a5f" stroke-width="2.4" stroke-linecap="round" fill="none"/><line x1="-7.5" y1="-32" x2="7.5" y2="-32" stroke="#163a5f" stroke-width="2.4" stroke-linecap="round" fill="none"/><line x1="-6.5" y1="-14.2" x2="6.5" y2="-24.2" stroke="#163a5f" stroke-width="2.4" stroke-linecap="round" fill="none"/></g><g transform="rotate(0)"><line x1="0" y1="0" x2="0" y2="-32" stroke="#163a5f" stroke-width="2.4" stroke-linecap="round" fill="none"/><line x1="-7.5" y1="-32" x2="7.5" y2="-32" stroke="#163a5f" stroke-width="2.4" stroke-linecap="round" fill="none"/><line x1="-6.5" y1="-14.2" x2="6.5" y2="-24.2" stroke="#163a5f" stroke-width="2.4" stroke-linecap="round" fill="none"/></g><g transform="rotate(28)"><line x1="0" y1="0" x2="0" y2="-32" stroke="#163a5f" stroke-width="2.4" stroke-linecap="round" fill="none"/><line x1="-7.5" y1="-32" x2="7.5" y2="-32" stroke="#163a5f" stroke-width="2.4" stroke-linecap="round" fill="none"/><line x1="-6.5" y1="-14.2" x2="6.5" y2="-24.2" stroke="#163a5f" stroke-width="2.4" stroke-linecap="round" fill="none"/></g></g><g transform="translate(74 74) rotate(135)"><g transform="rotate(-28)"><line x1="0" y1="0" x2="0" y2="-32" stroke="#163a5f" stroke-width="2.4" stroke-linecap="round" fill="none"/><line x1="-7.5" y1="-32" x2="7.5" y2="-32" stroke="#163a5f" stroke-width="2.4" stroke-linecap="round" fill="none"/><line x1="-6.5" y1="-14.2" x2="6.5" y2="-24.2" stroke="#163a5f" stroke-width="2.4" stroke-linecap="round" fill="none"/></g><g transform="rotate(0)"><line x1="0" y1="0" x2="0" y2="-32" stroke="#163a5f" stroke-width="2.4" stroke-linecap="round" fill="none"/><line x1="-7.5" y1="-32" x2="7.5" y2="-32" stroke="#163a5f" stroke-width="2.4" stroke-linecap="round" fill="none"/><line x1="-6.5" y1="-14.2" x2="6.5" y2="-24.2" stroke="#163a5f" stroke-width="2.4" stroke-linecap="round" fill="none"/></g><g transform="rotate(28)"><line x1="0" y1="0" x2="0" y2="-32" stroke="#163a5f" stroke-width="2.4" stroke-linecap="round" fill="none"/><line x1="-7.5" y1="-32" x2="7.5" y2="-32" stroke="#163a5f" stroke-width="2.4" stroke-linecap="round" fill="none"/><line x1="-6.5" y1="-14.2" x2="6.5" y2="-24.2" stroke="#163a5f" stroke-width="2.4" stroke-linecap="round" fill="none"/></g></g><g transform="translate(-74 74) rotate(225)"><g transform="rotate(-28)"><line x1="0" y1="0" x2="0" y2="-32" stroke="#163a5f" stroke-width="2.4" stroke-linecap="round" fill="none"/><line x1="-7.5" y1="-32" x2="7.5" y2="-32" stroke="#163a5f" stroke-width="2.4" stroke-linecap="round" fill="none"/><line x1="-6.5" y1="-14.2" x2="6.5" y2="-24.2" stroke="#163a5f" stroke-width="2.4" stroke-linecap="round" fill="none"/></g><g transform="rotate(0)"><line x1="0" y1="0" x2="0" y2="-32" stroke="#163a5f" stroke-width="2.4" stroke-linecap="round" fill="none"/><line x1="-7.5" y1="-32" x2="7.5" y2="-32" stroke="#163a5f" stroke-width="2.4" stroke-linecap="round" fill="none"/><line x1="-6.5" y1="-14.2" x2="6.5" y2="-24.2" stroke="#163a5f" stroke-width="2.4" stroke-linecap="round" fill="none"/></g><g transform="rotate(28)"><line x1="0" y1="0" x2="0" y2="-32" stroke="#163a5f" stroke-width="2.4" stroke-linecap="round" fill="none"/><line x1="-7.5" y1="-32" x2="7.5" y2="-32" stroke="#163a5f" stroke-width="2.4" stroke-linecap="round" fill="none"/><line x1="-6.5" y1="-14.2" x2="6.5" y2="-24.2" stroke="#163a5f" stroke-width="2.4" stroke-linecap="round" fill="none"/></g></g><g transform="translate(-74 -74) rotate(315)"><g transform="rotate(-28)"><line x1="0" y1="0" x2="0" y2="-32" stroke="#163a5f" stroke-width="2.4" stroke-linecap="round" fill="none"/><line x1="-7.5" y1="-32" x2="7.5" y2="-32" stroke="#163a5f" stroke-width="2.4" stroke-linecap="round" fill="none"/><line x1="-6.5" y1="-14.2" x2="6.5" y2="-24.2" stroke="#163a5f" stroke-width="2.4" stroke-linecap="round" fill="none"/></g><g transform="rotate(0)"><line x1="0" y1="0" x2="0" y2="-32" stroke="#163a5f" stroke-width="2.4" stroke-linecap="round" fill="none"/><line x1="-7.5" y1="-32" x2="7.5" y2="-32" stroke="#163a5f" stroke-width="2.4" stroke-linecap="round" fill="none"/><line x1="-6.5" y1="-14.2" x2="6.5" y2="-24.2" stroke="#163a5f" stroke-width="2.4" stroke-linecap="round" fill="none"/></g><g transform="rotate(28)"><line x1="0" y1="0" x2="0" y2="-32" stroke="#163a5f" stroke-width="2.4" stroke-linecap="round" fill="none"/><line x1="-7.5" y1="-32" x2="7.5" y2="-32" stroke="#163a5f" stroke-width="2.4" stroke-linecap="round" fill="none"/><line x1="-6.5" y1="-14.2" x2="6.5" y2="-24.2" stroke="#163a5f" stroke-width="2.4" stroke-linecap="round" fill="none"/></g></g><g transform="translate(-92 -124) rotate(0)"><line x1="0" y1="0" x2="0" y2="-32" stroke="#1f7a6b" stroke-width="2.4" stroke-linecap="round" fill="none"/><line x1="-7.5" y1="-32" x2="7.5" y2="-32" stroke="#1f7a6b" stroke-width="2.4" stroke-linecap="round" fill="none"/><line x1="-6.5" y1="-14.2" x2="6.5" y2="-24.2" stroke="#1f7a6b" stroke-width="2.4" stroke-linecap="round" fill="none"/></g><g transform="translate(124 -92) rotate(90)"><line x1="0" y1="0" x2="0" y2="-32" stroke="#1f7a6b" stroke-width="2.4" stroke-linecap="round" fill="none"/><line x1="-7.5" y1="-32" x2="7.5" y2="-32" stroke="#1f7a6b" stroke-width="2.4" stroke-linecap="round" fill="none"/><line x1="-6.5" y1="-14.2" x2="6.5" y2="-24.2" stroke="#1f7a6b" stroke-width="2.4" stroke-linecap="round" fill="none"/></g><g transform="translate(92 124) rotate(180)"><line x1="0" y1="0" x2="0" y2="-32" stroke="#1f7a6b" stroke-width="2.4" stroke-linecap="round" fill="none"/><line x1="-7.5" y1="-32" x2="7.5" y2="-32" stroke="#1f7a6b" stroke-width="2.4" stroke-linecap="round" fill="none"/><line x1="-6.5" y1="-14.2" x2="6.5" y2="-24.2" stroke="#1f7a6b" stroke-width="2.4" stroke-linecap="round" fill="none"/></g><g transform="translate(-124 92) rotate(270)"><line x1="0" y1="0" x2="0" y2="-32" stroke="#1f7a6b" stroke-width="2.4" stroke-linecap="round" fill="none"/><line x1="-7.5" y1="-32" x2="7.5" y2="-32" stroke="#1f7a6b" stroke-width="2.4" stroke-linecap="round" fill="none"/><line x1="-6.5" y1="-14.2" x2="6.5" y2="-24.2" stroke="#1f7a6b" stroke-width="2.4" stroke-linecap="round" fill="none"/></g><g transform="translate(-46 -124) rotate(0)"><line x1="0" y1="0" x2="0" y2="-32" stroke="#1f7a6b" stroke-width="2.4" stroke-linecap="round" fill="none"/><line x1="-7.5" y1="-32" x2="7.5" y2="-32" stroke="#1f7a6b" stroke-width="2.4" stroke-linecap="round" fill="none"/><line x1="-6.5" y1="-14.2" x2="6.5" y2="-24.2" stroke="#1f7a6b" stroke-width="2.4" stroke-linecap="round" fill="none"/></g><g transform="translate(124 -46) rotate(90)"><line x1="0" y1="0" x2="0" y2="-32" stroke="#1f7a6b" stroke-width="2.4" stroke-linecap="round" fill="none"/><line x1="-7.5" y1="-32" x2="7.5" y2="-32" stroke="#1f7a6b" stroke-width="2.4" stroke-linecap="round" fill="none"/><line x1="-6.5" y1="-14.2" x2="6.5" y2="-24.2" stroke="#1f7a6b" stroke-width="2.4" stroke-linecap="round" fill="none"/></g><g transform="translate(46 124) rotate(180)"><line x1="0" y1="0" x2="0" y2="-32" stroke="#1f7a6b" stroke-width="2.4" stroke-linecap="round" fill="none"/><line x1="-7.5" y1="-32" x2="7.5" y2="-32" stroke="#1f7a6b" stroke-width="2.4" stroke-linecap="round" fill="none"/><line x1="-6.5" y1="-14.2" x2="6.5" y2="-24.2" stroke="#1f7a6b" stroke-width="2.4" stroke-linecap="round" fill="none"/></g><g transform="translate(-124 46) rotate(270)"><line x1="0" y1="0" x2="0" y2="-32" stroke="#1f7a6b" stroke-width="2.4" stroke-linecap="round" fill="none"/><line x1="-7.5" y1="-32" x2="7.5" y2="-32" stroke="#1f7a6b" stroke-width="2.4" stroke-linecap="round" fill="none"/><line x1="-6.5" y1="-14.2" x2="6.5" y2="-24.2" stroke="#1f7a6b" stroke-width="2.4" stroke-linecap="round" fill="none"/></g><g transform="translate(0 -124) rotate(0)"><line x1="0" y1="0" x2="0" y2="-32" stroke="#1f7a6b" stroke-width="2.4" stroke-linecap="round" fill="none"/><line x1="-7.5" y1="-32" x2="7.5" y2="-32" stroke="#1f7a6b" stroke-width="2.4" stroke-linecap="round" fill="none"/><line x1="-6.5" y1="-14.2" x2="6.5" y2="-24.2" stroke="#1f7a6b" stroke-width="2.4" stroke-linecap="round" fill="none"/></g><g transform="translate(124 0) rotate(90)"><line x1="0" y1="0" x2="0" y2="-32" stroke="#1f7a6b" stroke-width="2.4" stroke-linecap="round" fill="none"/><line x1="-7.5" y1="-32" x2="7.5" y2="-32" stroke="#1f7a6b" stroke-width="2.4" stroke-linecap="round" fill="none"/><line x1="-6.5" y1="-14.2" x2="6.5" y2="-24.2" stroke="#1f7a6b" stroke-width="2.4" stroke-linecap="round" fill="none"/></g><g transform="translate(0 124) rotate(180)"><line x1="0" y1="0" x2="0" y2="-32" stroke="#1f7a6b" stroke-width="2.4" stroke-linecap="round" fill="none"/><line x1="-7.5" y1="-32" x2="7.5" y2="-32" stroke="#1f7a6b" stroke-width="2.4" stroke-linecap="round" fill="none"/><line x1="-6.5" y1="-14.2" x2="6.5" y2="-24.2" stroke="#1f7a6b" stroke-width="2.4" stroke-linecap="round" fill="none"/></g><g transform="translate(-124 0) rotate(270)"><line x1="0" y1="0" x2="0" y2="-32" stroke="#1f7a6b" stroke-width="2.4" stroke-linecap="round" fill="none"/><line x1="-7.5" y1="-32" x2="7.5" y2="-32" stroke="#1f7a6b" stroke-width="2.4" stroke-linecap="round" fill="none"/><line x1="-6.5" y1="-14.2" x2="6.5" y2="-24.2" stroke="#1f7a6b" stroke-width="2.4" stroke-linecap="round" fill="none"/></g><g transform="translate(46 -124) rotate(0)"><line x1="0" y1="0" x2="0" y2="-32" stroke="#1f7a6b" stroke-width="2.4" stroke-linecap="round" fill="none"/><line x1="-7.5" y1="-32" x2="7.5" y2="-32" stroke="#1f7a6b" stroke-width="2.4" stroke-linecap="round" fill="none"/><line x1="-6.5" y1="-14.2" x2="6.5" y2="-24.2" stroke="#1f7a6b" stroke-width="2.4" stroke-linecap="round" fill="none"/></g><g transform="translate(124 46) rotate(90)"><line x1="0" y1="0" x2="0" y2="-32" stroke="#1f7a6b" stroke-width="2.4" stroke-linecap="round" fill="none"/><line x1="-7.5" y1="-32" x2="7.5" y2="-32" stroke="#1f7a6b" stroke-width="2.4" stroke-linecap="round" fill="none"/><line x1="-6.5" y1="-14.2" x2="6.5" y2="-24.2" stroke="#1f7a6b" stroke-width="2.4" stroke-linecap="round" fill="none"/></g><g transform="translate(-46 124) rotate(180)"><line x1="0" y1="0" x2="0" y2="-32" stroke="#1f7a6b" stroke-width="2.4" stroke-linecap="round" fill="none"/><line x1="-7.5" y1="-32" x2="7.5" y2="-32" stroke="#1f7a6b" stroke-width="2.4" stroke-linecap="round" fill="none"/><line x1="-6.5" y1="-14.2" x2="6.5" y2="-24.2" stroke="#1f7a6b" stroke-width="2.4" stroke-linecap="round" fill="none"/></g><g transform="translate(-124 -46) rotate(270)"><line x1="0" y1="0" x2="0" y2="-32" stroke="#1f7a6b" stroke-width="2.4" stroke-linecap="round" fill="none"/><line x1="-7.5" y1="-32" x2="7.5" y2="-32" stroke="#1f7a6b" stroke-width="2.4" stroke-linecap="round" fill="none"/><line x1="-6.5" y1="-14.2" x2="6.5" y2="-24.2" stroke="#1f7a6b" stroke-width="2.4" stroke-linecap="round" fill="none"/></g><g transform="translate(92 -124) rotate(0)"><line x1="0" y1="0" x2="0" y2="-32" stroke="#1f7a6b" stroke-width="2.4" stroke-linecap="round" fill="none"/><line x1="-7.5" y1="-32" x2="7.5" y2="-32" stroke="#1f7a6b" stroke-width="2.4" stroke-linecap="round" fill="none"/><line x1="-6.5" y1="-14.2" x2="6.5" y2="-24.2" stroke="#1f7a6b" stroke-width="2.4" stroke-linecap="round" fill="none"/></g><g transform="translate(124 92) rotate(90)"><line x1="0" y1="0" x2="0" y2="-32" stroke="#1f7a6b" stroke-width="2.4" stroke-linecap="round" fill="none"/><line x1="-7.5" y1="-32" x2="7.5" y2="-32" stroke="#1f7a6b" stroke-width="2.4" stroke-linecap="round" fill="none"/><line x1="-6.5" y1="-14.2" x2="6.5" y2="-24.2" stroke="#1f7a6b" stroke-width="2.4" stroke-linecap="round" fill="none"/></g><g transform="translate(-92 124) rotate(180)"><line x1="0" y1="0" x2="0" y2="-32" stroke="#1f7a6b" stroke-width="2.4" stroke-linecap="round" fill="none"/><line x1="-7.5" y1="-32" x2="7.5" y2="-32" stroke="#1f7a6b" stroke-width="2.4" stroke-linecap="round" fill="none"/><line x1="-6.5" y1="-14.2" x2="6.5" y2="-24.2" stroke="#1f7a6b" stroke-width="2.4" stroke-linecap="round" fill="none"/></g><g transform="translate(-124 -92) rotate(270)"><line x1="0" y1="0" x2="0" y2="-32" stroke="#1f7a6b" stroke-width="2.4" stroke-linecap="round" fill="none"/><line x1="-7.5" y1="-32" x2="7.5" y2="-32" stroke="#1f7a6b" stroke-width="2.4" stroke-linecap="round" fill="none"/><line x1="-6.5" y1="-14.2" x2="6.5" y2="-24.2" stroke="#1f7a6b" stroke-width="2.4" stroke-linecap="round" fill="none"/></g><g transform="translate(124 -124) rotate(45)"><g transform="rotate(-28)"><line x1="0" y1="0" x2="0" y2="-32" stroke="#1f7a6b" stroke-width="2.4" stroke-linecap="round" fill="none"/><line x1="-7.5" y1="-32" x2="7.5" y2="-32" stroke="#1f7a6b" stroke-width="2.4" stroke-linecap="round" fill="none"/><line x1="-6.5" y1="-14.2" x2="6.5" y2="-24.2" stroke="#1f7a6b" stroke-width="2.4" stroke-linecap="round" fill="none"/></g><g transform="rotate(0)"><line x1="0" y1="0" x2="0" y2="-32" stroke="#1f7a6b" stroke-width="2.4" stroke-linecap="round" fill="none"/><line x1="-7.5" y1="-32" x2="7.5" y2="-32" stroke="#1f7a6b" stroke-width="2.4" stroke-linecap="round" fill="none"/><line x1="-6.5" y1="-14.2" x2="6.5" y2="-24.2" stroke="#1f7a6b" stroke-width="2.4" stroke-linecap="round" fill="none"/></g><g transform="rotate(28)"><line x1="0" y1="0" x2="0" y2="-32" stroke="#1f7a6b" stroke-width="2.4" stroke-linecap="round" fill="none"/><line x1="-7.5" y1="-32" x2="7.5" y2="-32" stroke="#1f7a6b" stroke-width="2.4" stroke-linecap="round" fill="none"/><line x1="-6.5" y1="-14.2" x2="6.5" y2="-24.2" stroke="#1f7a6b" stroke-width="2.4" stroke-linecap="round" fill="none"/></g></g><g transform="translate(124 124) rotate(135)"><g transform="rotate(-28)"><line x1="0" y1="0" x2="0" y2="-32" stroke="#1f7a6b" stroke-width="2.4" stroke-linecap="round" fill="none"/><line x1="-7.5" y1="-32" x2="7.5" y2="-32" stroke="#1f7a6b" stroke-width="2.4" stroke-linecap="round" fill="none"/><line x1="-6.5" y1="-14.2" x2="6.5" y2="-24.2" stroke="#1f7a6b" stroke-width="2.4" stroke-linecap="round" fill="none"/></g><g transform="rotate(0)"><line x1="0" y1="0" x2="0" y2="-32" stroke="#1f7a6b" stroke-width="2.4" stroke-linecap="round" fill="none"/><line x1="-7.5" y1="-32" x2="7.5" y2="-32" stroke="#1f7a6b" stroke-width="2.4" stroke-linecap="round" fill="none"/><line x1="-6.5" y1="-14.2" x2="6.5" y2="-24.2" stroke="#1f7a6b" stroke-width="2.4" stroke-linecap="round" fill="none"/></g><g transform="rotate(28)"><line x1="0" y1="0" x2="0" y2="-32" stroke="#1f7a6b" stroke-width="2.4" stroke-linecap="round" fill="none"/><line x1="-7.5" y1="-32" x2="7.5" y2="-32" stroke="#1f7a6b" stroke-width="2.4" stroke-linecap="round" fill="none"/><line x1="-6.5" y1="-14.2" x2="6.5" y2="-24.2" stroke="#1f7a6b" stroke-width="2.4" stroke-linecap="round" fill="none"/></g></g><g transform="translate(-124 124) rotate(225)"><g transform="rotate(-28)"><line x1="0" y1="0" x2="0" y2="-32" stroke="#1f7a6b" stroke-width="2.4" stroke-linecap="round" fill="none"/><line x1="-7.5" y1="-32" x2="7.5" y2="-32" stroke="#1f7a6b" stroke-width="2.4" stroke-linecap="round" fill="none"/><line x1="-6.5" y1="-14.2" x2="6.5" y2="-24.2" stroke="#1f7a6b" stroke-width="2.4" stroke-linecap="round" fill="none"/></g><g transform="rotate(0)"><line x1="0" y1="0" x2="0" y2="-32" stroke="#1f7a6b" stroke-width="2.4" stroke-linecap="round" fill="none"/><line x1="-7.5" y1="-32" x2="7.5" y2="-32" stroke="#1f7a6b" stroke-width="2.4" stroke-linecap="round" fill="none"/><line x1="-6.5" y1="-14.2" x2="6.5" y2="-24.2" stroke="#1f7a6b" stroke-width="2.4" stroke-linecap="round" fill="none"/></g><g transform="rotate(28)"><line x1="0" y1="0" x2="0" y2="-32" stroke="#1f7a6b" stroke-width="2.4" stroke-linecap="round" fill="none"/><line x1="-7.5" y1="-32" x2="7.5" y2="-32" stroke="#1f7a6b" stroke-width="2.4" stroke-linecap="round" fill="none"/><line x1="-6.5" y1="-14.2" x2="6.5" y2="-24.2" stroke="#1f7a6b" stroke-width="2.4" stroke-linecap="round" fill="none"/></g></g><g transform="translate(-124 -124) rotate(315)"><g transform="rotate(-28)"><line x1="0" y1="0" x2="0" y2="-32" stroke="#1f7a6b" stroke-width="2.4" stroke-linecap="round" fill="none"/><line x1="-7.5" y1="-32" x2="7.5" y2="-32" stroke="#1f7a6b" stroke-width="2.4" stroke-linecap="round" fill="none"/><line x1="-6.5" y1="-14.2" x2="6.5" y2="-24.2" stroke="#1f7a6b" stroke-width="2.4" stroke-linecap="round" fill="none"/></g><g transform="rotate(0)"><line x1="0" y1="0" x2="0" y2="-32" stroke="#1f7a6b" stroke-width="2.4" stroke-linecap="round" fill="none"/><line x1="-7.5" y1="-32" x2="7.5" y2="-32" stroke="#1f7a6b" stroke-width="2.4" stroke-linecap="round" fill="none"/><line x1="-6.5" y1="-14.2" x2="6.5" y2="-24.2" stroke="#1f7a6b" stroke-width="2.4" stroke-linecap="round" fill="none"/></g><g transform="rotate(28)"><line x1="0" y1="0" x2="0" y2="-32" stroke="#1f7a6b" stroke-width="2.4" stroke-linecap="round" fill="none"/><line x1="-7.5" y1="-32" x2="7.5" y2="-32" stroke="#1f7a6b" stroke-width="2.4" stroke-linecap="round" fill="none"/><line x1="-6.5" y1="-14.2" x2="6.5" y2="-24.2" stroke="#1f7a6b" stroke-width="2.4" stroke-linecap="round" fill="none"/></g></g><g transform="translate(-148 -176) rotate(0)"><line x1="0" y1="0" x2="0" y2="-32" stroke="#163a5f" stroke-width="2.4" stroke-linecap="round" fill="none"/><line x1="-7.5" y1="-32" x2="7.5" y2="-32" stroke="#163a5f" stroke-width="2.4" stroke-linecap="round" fill="none"/><line x1="-6.5" y1="-14.2" x2="6.5" y2="-24.2" stroke="#163a5f" stroke-width="2.4" stroke-linecap="round" fill="none"/></g><g transform="translate(176 -148) rotate(90)"><line x1="0" y1="0" x2="0" y2="-32" stroke="#163a5f" stroke-width="2.4" stroke-linecap="round" fill="none"/><line x1="-7.5" y1="-32" x2="7.5" y2="-32" stroke="#163a5f" stroke-width="2.4" stroke-linecap="round" fill="none"/><line x1="-6.5" y1="-14.2" x2="6.5" y2="-24.2" stroke="#163a5f" stroke-width="2.4" stroke-linecap="round" fill="none"/></g><g transform="translate(148 176) rotate(180)"><line x1="0" y1="0" x2="0" y2="-32" stroke="#163a5f" stroke-width="2.4" stroke-linecap="round" fill="none"/><line x1="-7.5" y1="-32" x2="7.5" y2="-32" stroke="#163a5f" stroke-width="2.4" stroke-linecap="round" fill="none"/><line x1="-6.5" y1="-14.2" x2="6.5" y2="-24.2" stroke="#163a5f" stroke-width="2.4" stroke-linecap="round" fill="none"/></g><g transform="translate(-176 148) rotate(270)"><line x1="0" y1="0" x2="0" y2="-32" stroke="#163a5f" stroke-width="2.4" stroke-linecap="round" fill="none"/><line x1="-7.5" y1="-32" x2="7.5" y2="-32" stroke="#163a5f" stroke-width="2.4" stroke-linecap="round" fill="none"/><line x1="-6.5" y1="-14.2" x2="6.5" y2="-24.2" stroke="#163a5f" stroke-width="2.4" stroke-linecap="round" fill="none"/></g><g transform="translate(-99 -176) rotate(0)"><line x1="0" y1="0" x2="0" y2="-32" stroke="#163a5f" stroke-width="2.4" stroke-linecap="round" fill="none"/><line x1="-7.5" y1="-32" x2="7.5" y2="-32" stroke="#163a5f" stroke-width="2.4" stroke-linecap="round" fill="none"/><line x1="-6.5" y1="-14.2" x2="6.5" y2="-24.2" stroke="#163a5f" stroke-width="2.4" stroke-linecap="round" fill="none"/></g><g transform="translate(176 -99) rotate(90)"><line x1="0" y1="0" x2="0" y2="-32" stroke="#163a5f" stroke-width="2.4" stroke-linecap="round" fill="none"/><line x1="-7.5" y1="-32" x2="7.5" y2="-32" stroke="#163a5f" stroke-width="2.4" stroke-linecap="round" fill="none"/><line x1="-6.5" y1="-14.2" x2="6.5" y2="-24.2" stroke="#163a5f" stroke-width="2.4" stroke-linecap="round" fill="none"/></g><g transform="translate(99 176) rotate(180)"><line x1="0" y1="0" x2="0" y2="-32" stroke="#163a5f" stroke-width="2.4" stroke-linecap="round" fill="none"/><line x1="-7.5" y1="-32" x2="7.5" y2="-32" stroke="#163a5f" stroke-width="2.4" stroke-linecap="round" fill="none"/><line x1="-6.5" y1="-14.2" x2="6.5" y2="-24.2" stroke="#163a5f" stroke-width="2.4" stroke-linecap="round" fill="none"/></g><g transform="translate(-176 99) rotate(270)"><line x1="0" y1="0" x2="0" y2="-32" stroke="#163a5f" stroke-width="2.4" stroke-linecap="round" fill="none"/><line x1="-7.5" y1="-32" x2="7.5" y2="-32" stroke="#163a5f" stroke-width="2.4" stroke-linecap="round" fill="none"/><line x1="-6.5" y1="-14.2" x2="6.5" y2="-24.2" stroke="#163a5f" stroke-width="2.4" stroke-linecap="round" fill="none"/></g><g transform="translate(-49 -176) rotate(0)"><line x1="0" y1="0" x2="0" y2="-32" stroke="#163a5f" stroke-width="2.4" stroke-linecap="round" fill="none"/><line x1="-7.5" y1="-32" x2="7.5" y2="-32" stroke="#163a5f" stroke-width="2.4" stroke-linecap="round" fill="none"/><line x1="-6.5" y1="-14.2" x2="6.5" y2="-24.2" stroke="#163a5f" stroke-width="2.4" stroke-linecap="round" fill="none"/></g><g transform="translate(176 -49) rotate(90)"><line x1="0" y1="0" x2="0" y2="-32" stroke="#163a5f" stroke-width="2.4" stroke-linecap="round" fill="none"/><line x1="-7.5" y1="-32" x2="7.5" y2="-32" stroke="#163a5f" stroke-width="2.4" stroke-linecap="round" fill="none"/><line x1="-6.5" y1="-14.2" x2="6.5" y2="-24.2" stroke="#163a5f" stroke-width="2.4" stroke-linecap="round" fill="none"/></g><g transform="translate(49 176) rotate(180)"><line x1="0" y1="0" x2="0" y2="-32" stroke="#163a5f" stroke-width="2.4" stroke-linecap="round" fill="none"/><line x1="-7.5" y1="-32" x2="7.5" y2="-32" stroke="#163a5f" stroke-width="2.4" stroke-linecap="round" fill="none"/><line x1="-6.5" y1="-14.2" x2="6.5" y2="-24.2" stroke="#163a5f" stroke-width="2.4" stroke-linecap="round" fill="none"/></g><g transform="translate(-176 49) rotate(270)"><line x1="0" y1="0" x2="0" y2="-32" stroke="#163a5f" stroke-width="2.4" stroke-linecap="round" fill="none"/><line x1="-7.5" y1="-32" x2="7.5" y2="-32" stroke="#163a5f" stroke-width="2.4" stroke-linecap="round" fill="none"/><line x1="-6.5" y1="-14.2" x2="6.5" y2="-24.2" stroke="#163a5f" stroke-width="2.4" stroke-linecap="round" fill="none"/></g><g transform="translate(0 -176) rotate(0)"><line x1="0" y1="0" x2="0" y2="-32" stroke="#163a5f" stroke-width="2.4" stroke-linecap="round" fill="none"/><line x1="-7.5" y1="-32" x2="7.5" y2="-32" stroke="#163a5f" stroke-width="2.4" stroke-linecap="round" fill="none"/><line x1="-6.5" y1="-14.2" x2="6.5" y2="-24.2" stroke="#163a5f" stroke-width="2.4" stroke-linecap="round" fill="none"/></g><g transform="translate(176 0) rotate(90)"><line x1="0" y1="0" x2="0" y2="-32" stroke="#163a5f" stroke-width="2.4" stroke-linecap="round" fill="none"/><line x1="-7.5" y1="-32" x2="7.5" y2="-32" stroke="#163a5f" stroke-width="2.4" stroke-linecap="round" fill="none"/><line x1="-6.5" y1="-14.2" x2="6.5" y2="-24.2" stroke="#163a5f" stroke-width="2.4" stroke-linecap="round" fill="none"/></g><g transform="translate(0 176) rotate(180)"><line x1="0" y1="0" x2="0" y2="-32" stroke="#163a5f" stroke-width="2.4" stroke-linecap="round" fill="none"/><line x1="-7.5" y1="-32" x2="7.5" y2="-32" stroke="#163a5f" stroke-width="2.4" stroke-linecap="round" fill="none"/><line x1="-6.5" y1="-14.2" x2="6.5" y2="-24.2" stroke="#163a5f" stroke-width="2.4" stroke-linecap="round" fill="none"/></g><g transform="translate(-176 0) rotate(270)"><line x1="0" y1="0" x2="0" y2="-32" stroke="#163a5f" stroke-width="2.4" stroke-linecap="round" fill="none"/><line x1="-7.5" y1="-32" x2="7.5" y2="-32" stroke="#163a5f" stroke-width="2.4" stroke-linecap="round" fill="none"/><line x1="-6.5" y1="-14.2" x2="6.5" y2="-24.2" stroke="#163a5f" stroke-width="2.4" stroke-linecap="round" fill="none"/></g><g transform="translate(49 -176) rotate(0)"><line x1="0" y1="0" x2="0" y2="-32" stroke="#163a5f" stroke-width="2.4" stroke-linecap="round" fill="none"/><line x1="-7.5" y1="-32" x2="7.5" y2="-32" stroke="#163a5f" stroke-width="2.4" stroke-linecap="round" fill="none"/><line x1="-6.5" y1="-14.2" x2="6.5" y2="-24.2" stroke="#163a5f" stroke-width="2.4" stroke-linecap="round" fill="none"/></g><g transform="translate(176 49) rotate(90)"><line x1="0" y1="0" x2="0" y2="-32" stroke="#163a5f" stroke-width="2.4" stroke-linecap="round" fill="none"/><line x1="-7.5" y1="-32" x2="7.5" y2="-32" stroke="#163a5f" stroke-width="2.4" stroke-linecap="round" fill="none"/><line x1="-6.5" y1="-14.2" x2="6.5" y2="-24.2" stroke="#163a5f" stroke-width="2.4" stroke-linecap="round" fill="none"/></g><g transform="translate(-49 176) rotate(180)"><line x1="0" y1="0" x2="0" y2="-32" stroke="#163a5f" stroke-width="2.4" stroke-linecap="round" fill="none"/><line x1="-7.5" y1="-32" x2="7.5" y2="-32" stroke="#163a5f" stroke-width="2.4" stroke-linecap="round" fill="none"/><line x1="-6.5" y1="-14.2" x2="6.5" y2="-24.2" stroke="#163a5f" stroke-width="2.4" stroke-linecap="round" fill="none"/></g><g transform="translate(-176 -49) rotate(270)"><line x1="0" y1="0" x2="0" y2="-32" stroke="#163a5f" stroke-width="2.4" stroke-linecap="round" fill="none"/><line x1="-7.5" y1="-32" x2="7.5" y2="-32" stroke="#163a5f" stroke-width="2.4" stroke-linecap="round" fill="none"/><line x1="-6.5" y1="-14.2" x2="6.5" y2="-24.2" stroke="#163a5f" stroke-width="2.4" stroke-linecap="round" fill="none"/></g><g transform="translate(99 -176) rotate(0)"><line x1="0" y1="0" x2="0" y2="-32" stroke="#163a5f" stroke-width="2.4" stroke-linecap="round" fill="none"/><line x1="-7.5" y1="-32" x2="7.5" y2="-32" stroke="#163a5f" stroke-width="2.4" stroke-linecap="round" fill="none"/><line x1="-6.5" y1="-14.2" x2="6.5" y2="-24.2" stroke="#163a5f" stroke-width="2.4" stroke-linecap="round" fill="none"/></g><g transform="translate(176 99) rotate(90)"><line x1="0" y1="0" x2="0" y2="-32" stroke="#163a5f" stroke-width="2.4" stroke-linecap="round" fill="none"/><line x1="-7.5" y1="-32" x2="7.5" y2="-32" stroke="#163a5f" stroke-width="2.4" stroke-linecap="round" fill="none"/><line x1="-6.5" y1="-14.2" x2="6.5" y2="-24.2" stroke="#163a5f" stroke-width="2.4" stroke-linecap="round" fill="none"/></g><g transform="translate(-99 176) rotate(180)"><line x1="0" y1="0" x2="0" y2="-32" stroke="#163a5f" stroke-width="2.4" stroke-linecap="round" fill="none"/><line x1="-7.5" y1="-32" x2="7.5" y2="-32" stroke="#163a5f" stroke-width="2.4" stroke-linecap="round" fill="none"/><line x1="-6.5" y1="-14.2" x2="6.5" y2="-24.2" stroke="#163a5f" stroke-width="2.4" stroke-linecap="round" fill="none"/></g><g transform="translate(-176 -99) rotate(270)"><line x1="0" y1="0" x2="0" y2="-32" stroke="#163a5f" stroke-width="2.4" stroke-linecap="round" fill="none"/><line x1="-7.5" y1="-32" x2="7.5" y2="-32" stroke="#163a5f" stroke-width="2.4" stroke-linecap="round" fill="none"/><line x1="-6.5" y1="-14.2" x2="6.5" y2="-24.2" stroke="#163a5f" stroke-width="2.4" stroke-linecap="round" fill="none"/></g><g transform="translate(148 -176) rotate(0)"><line x1="0" y1="0" x2="0" y2="-32" stroke="#163a5f" stroke-width="2.4" stroke-linecap="round" fill="none"/><line x1="-7.5" y1="-32" x2="7.5" y2="-32" stroke="#163a5f" stroke-width="2.4" stroke-linecap="round" fill="none"/><line x1="-6.5" y1="-14.2" x2="6.5" y2="-24.2" stroke="#163a5f" stroke-width="2.4" stroke-linecap="round" fill="none"/></g><g transform="translate(176 148) rotate(90)"><line x1="0" y1="0" x2="0" y2="-32" stroke="#163a5f" stroke-width="2.4" stroke-linecap="round" fill="none"/><line x1="-7.5" y1="-32" x2="7.5" y2="-32" stroke="#163a5f" stroke-width="2.4" stroke-linecap="round" fill="none"/><line x1="-6.5" y1="-14.2" x2="6.5" y2="-24.2" stroke="#163a5f" stroke-width="2.4" stroke-linecap="round" fill="none"/></g><g transform="translate(-148 176) rotate(180)"><line x1="0" y1="0" x2="0" y2="-32" stroke="#163a5f" stroke-width="2.4" stroke-linecap="round" fill="none"/><line x1="-7.5" y1="-32" x2="7.5" y2="-32" stroke="#163a5f" stroke-width="2.4" stroke-linecap="round" fill="none"/><line x1="-6.5" y1="-14.2" x2="6.5" y2="-24.2" stroke="#163a5f" stroke-width="2.4" stroke-linecap="round" fill="none"/></g><g transform="translate(-176 -148) rotate(270)"><line x1="0" y1="0" x2="0" y2="-32" stroke="#163a5f" stroke-width="2.4" stroke-linecap="round" fill="none"/><line x1="-7.5" y1="-32" x2="7.5" y2="-32" stroke="#163a5f" stroke-width="2.4" stroke-linecap="round" fill="none"/><line x1="-6.5" y1="-14.2" x2="6.5" y2="-24.2" stroke="#163a5f" stroke-width="2.4" stroke-linecap="round" fill="none"/></g><g transform="translate(176 -176) rotate(45)"><g transform="rotate(-28)"><line x1="0" y1="0" x2="0" y2="-32" stroke="#163a5f" stroke-width="2.4" stroke-linecap="round" fill="none"/><line x1="-7.5" y1="-32" x2="7.5" y2="-32" stroke="#163a5f" stroke-width="2.4" stroke-linecap="round" fill="none"/><line x1="-6.5" y1="-14.2" x2="6.5" y2="-24.2" stroke="#163a5f" stroke-width="2.4" stroke-linecap="round" fill="none"/></g><g transform="rotate(0)"><line x1="0" y1="0" x2="0" y2="-32" stroke="#163a5f" stroke-width="2.4" stroke-linecap="round" fill="none"/><line x1="-7.5" y1="-32" x2="7.5" y2="-32" stroke="#163a5f" stroke-width="2.4" stroke-linecap="round" fill="none"/><line x1="-6.5" y1="-14.2" x2="6.5" y2="-24.2" stroke="#163a5f" stroke-width="2.4" stroke-linecap="round" fill="none"/></g><g transform="rotate(28)"><line x1="0" y1="0" x2="0" y2="-32" stroke="#163a5f" stroke-width="2.4" stroke-linecap="round" fill="none"/><line x1="-7.5" y1="-32" x2="7.5" y2="-32" stroke="#163a5f" stroke-width="2.4" stroke-linecap="round" fill="none"/><line x1="-6.5" y1="-14.2" x2="6.5" y2="-24.2" stroke="#163a5f" stroke-width="2.4" stroke-linecap="round" fill="none"/></g></g><g transform="translate(176 176) rotate(135)"><g transform="rotate(-28)"><line x1="0" y1="0" x2="0" y2="-32" stroke="#163a5f" stroke-width="2.4" stroke-linecap="round" fill="none"/><line x1="-7.5" y1="-32" x2="7.5" y2="-32" stroke="#163a5f" stroke-width="2.4" stroke-linecap="round" fill="none"/><line x1="-6.5" y1="-14.2" x2="6.5" y2="-24.2" stroke="#163a5f" stroke-width="2.4" stroke-linecap="round" fill="none"/></g><g transform="rotate(0)"><line x1="0" y1="0" x2="0" y2="-32" stroke="#163a5f" stroke-width="2.4" stroke-linecap="round" fill="none"/><line x1="-7.5" y1="-32" x2="7.5" y2="-32" stroke="#163a5f" stroke-width="2.4" stroke-linecap="round" fill="none"/><line x1="-6.5" y1="-14.2" x2="6.5" y2="-24.2" stroke="#163a5f" stroke-width="2.4" stroke-linecap="round" fill="none"/></g><g transform="rotate(28)"><line x1="0" y1="0" x2="0" y2="-32" stroke="#163a5f" stroke-width="2.4" stroke-linecap="round" fill="none"/><line x1="-7.5" y1="-32" x2="7.5" y2="-32" stroke="#163a5f" stroke-width="2.4" stroke-linecap="round" fill="none"/><line x1="-6.5" y1="-14.2" x2="6.5" y2="-24.2" stroke="#163a5f" stroke-width="2.4" stroke-linecap="round" fill="none"/></g></g><g transform="translate(-176 176) rotate(225)"><g transform="rotate(-28)"><line x1="0" y1="0" x2="0" y2="-32" stroke="#163a5f" stroke-width="2.4" stroke-linecap="round" fill="none"/><line x1="-7.5" y1="-32" x2="7.5" y2="-32" stroke="#163a5f" stroke-width="2.4" stroke-linecap="round" fill="none"/><line x1="-6.5" y1="-14.2" x2="6.5" y2="-24.2" stroke="#163a5f" stroke-width="2.4" stroke-linecap="round" fill="none"/></g><g transform="rotate(0)"><line x1="0" y1="0" x2="0" y2="-32" stroke="#163a5f" stroke-width="2.4" stroke-linecap="round" fill="none"/><line x1="-7.5" y1="-32" x2="7.5" y2="-32" stroke="#163a5f" stroke-width="2.4" stroke-linecap="round" fill="none"/><line x1="-6.5" y1="-14.2" x2="6.5" y2="-24.2" stroke="#163a5f" stroke-width="2.4" stroke-linecap="round" fill="none"/></g><g transform="rotate(28)"><line x1="0" y1="0" x2="0" y2="-32" stroke="#163a5f" stroke-width="2.4" stroke-linecap="round" fill="none"/><line x1="-7.5" y1="-32" x2="7.5" y2="-32" stroke="#163a5f" stroke-width="2.4" stroke-linecap="round" fill="none"/><line x1="-6.5" y1="-14.2" x2="6.5" y2="-24.2" stroke="#163a5f" stroke-width="2.4" stroke-linecap="round" fill="none"/></g></g><g transform="translate(-176 -176) rotate(315)"><g transform="rotate(-28)"><line x1="0" y1="0" x2="0" y2="-32" stroke="#163a5f" stroke-width="2.4" stroke-linecap="round" fill="none"/><line x1="-7.5" y1="-32" x2="7.5" y2="-32" stroke="#163a5f" stroke-width="2.4" stroke-linecap="round" fill="none"/><line x1="-6.5" y1="-14.2" x2="6.5" y2="-24.2" stroke="#163a5f" stroke-width="2.4" stroke-linecap="round" fill="none"/></g><g transform="rotate(0)"><line x1="0" y1="0" x2="0" y2="-32" stroke="#163a5f" stroke-width="2.4" stroke-linecap="round" fill="none"/><line x1="-7.5" y1="-32" x2="7.5" y2="-32" stroke="#163a5f" stroke-width="2.4" stroke-linecap="round" fill="none"/><line x1="-6.5" y1="-14.2" x2="6.5" y2="-24.2" stroke="#163a5f" stroke-width="2.4" stroke-linecap="round" fill="none"/></g><g transform="rotate(28)"><line x1="0" y1="0" x2="0" y2="-32" stroke="#163a5f" stroke-width="2.4" stroke-linecap="round" fill="none"/><line x1="-7.5" y1="-32" x2="7.5" y2="-32" stroke="#163a5f" stroke-width="2.4" stroke-linecap="round" fill="none"/><line x1="-6.5" y1="-14.2" x2="6.5" y2="-24.2" stroke="#163a5f" stroke-width="2.4" stroke-linecap="round" fill="none"/></g></g></g><g class="legend" transform="translate(-218.93 274.93)"><text x="0" y="-12" font-family="system-ui,Segoe UI,Arial" font-size="15" font-weight="700" fill="#1c1c1c">Legend</text><svg x="0" y="0" width="30" height="30" viewBox="-22 -22 44 44"><circle cx="0" cy="0" r="15" stroke="#1c1c1c" stroke-width="2.4" stroke-linecap="round" fill="none"/></svg><text x="40" y="20" font-family="system-ui,Segoe UI,Arial" font-size="14" fill="#1c1c1c">Magic ring (ring)</text><svg x="0" y="34" width="30" height="30" viewBox="-23 -39 46 46"><line x1="0" y1="0" x2="0" y2="-32" stroke="#1c1c1c" stroke-width="2.4" stroke-linecap="round" fill="none"/><line x1="-7.5" y1="-32" x2="7.5" y2="-32" stroke="#1c1c1c" stroke-width="2.4" stroke-linecap="round" fill="none"/><line x1="-6.5" y1="-14.2" x2="6.5" y2="-24.2" stroke="#1c1c1c" stroke-width="2.4" stroke-linecap="round" fill="none"/></svg><text x="40" y="54" font-family="system-ui,Segoe UI,Arial" font-size="14" fill="#1c1c1c">Double crochet (dc)</text><svg x="0" y="68" width="30" height="30" viewBox="-28.65 -42.88 57.29 57.29"><g transform="rotate(-28)"><line x1="0" y1="0" x2="0" y2="-32" stroke="#1c1c1c" stroke-width="2.4" stroke-linecap="round" fill="none"/><line x1="-7.5" y1="-32" x2="7.5" y2="-32" stroke="#1c1c1c" stroke-width="2.4" stroke-linecap="round" fill="none"/><line x1="-6.5" y1="-14.2" x2="6.5" y2="-24.2" stroke="#1c1c1c" stroke-width="2.4" stroke-linecap="round" fill="none"/></g><g transform="rotate(0)"><line x1="0" y1="0" x2="0" y2="-32" stroke="#1c1c1c" stroke-width="2.4" stroke-linecap="round" fill="none"/><line x1="-7.5" y1="-32" x2="7.5" y2="-32" stroke="#1c1c1c" stroke-width="2.4" stroke-linecap="round" fill="none"/><line x1="-6.5" y1="-14.2" x2="6.5" y2="-24.2" stroke="#1c1c1c" stroke-width="2.4" stroke-linecap="round" fill="none"/></g><g transform="rotate(28)"><line x1="0" y1="0" x2="0" y2="-32" stroke="#1c1c1c" stroke-width="2.4" stroke-linecap="round" fill="none"/><line x1="-7.5" y1="-32" x2="7.5" y2="-32" stroke="#1c1c1c" stroke-width="2.4" stroke-linecap="round" fill="none"/><line x1="-6.5" y1="-14.2" x2="6.5" y2="-24.2" stroke="#1c1c1c" stroke-width="2.4" stroke-linecap="round" fill="none"/></g></svg><text x="40" y="88" font-family="system-ui,Segoe UI,Arial" font-size="14" fill="#1c1c1c">3 dc corner</text></g></svg>