<svg xmlns="http://www.w3.org/2000/svg" width="384.7" height="586.7" viewBox="-192.35 -244.35 384.7 586.7"><rect x="-192.35" y="-244.35" width="384.7" height="586.7" fill="#ffffff"/><text x="0" y="-210.35" text-anchor="middle" font-family="system-ui,Segoe UI,Arial" font-size="26" font-weight="800" fill="#1c1c1c">Sample Granny Square</text><g class="stitches"><g transform="translate(0 0) rotate(0)"><circle cx="0" cy="0" r="15" stroke="#1c1c1c" stroke-width="2.4" stroke-linecap="round" fill="none"/></g><g transform="translate(0 -44) rotate(0)"><line x1="0" y1="0" x2="0" y2="-32" stroke="#1c1c1c" stroke-width="2.4" stroke-linecap="round" fill="none"/><line x1="-7.5" y1="-32" x2="7.5" y2="-32" stroke="#1c1c1c" stroke-width="2.4" stroke-linecap="round" fill="none"/><line x1="-6.5" y1="-14.2" x2="6.5" y2="-24.2" stroke="#1c1c1c" stroke-width="2.4" stroke-linecap="round" fill="none"/></g><g transform="translate(22 -38.11) rotate(30)"><line x1="0" y1="0" x2="0" y2="-32" stroke="#1c1c1c" stroke-width="2.4" stroke-linecap="round" fill="none"/><line x1="-7.5" y1="-32" x2="7.5" y2="-32" stroke="#1c1c1c" stroke-width="2.4" stroke-linecap="round" fill="none"/><line x1="-6.5" y1="-14.2" x2="6.5" y2="-24.2" stroke="#1c1c1c" stroke-width="2.4" stroke-linecap="round" fill="none"/></g><g transform="translate(38.11 -22) rotate(60)"><line x1="0" y1="0" x2="0" y2="-32" stroke="#1c1c1c" stroke-width="2.4" stroke-linecap="round" fill="none"/><line x1="-7.5" y1="-32" x2="7.5" y2="-32" stroke="#1c1c1c" stroke-width="2.4" stroke-linecap="round" fill="none"/><line x1="-6.5" y1="-14.2" x2="6.5" y2="-24.2" stroke="#1c1c1c" stroke-width="2.4" stroke-linecap="round" fill="none"/></g><g transform="translate(44 0) rotate(90)"><line x1="0" y1="0" x2="0" y2="-32" stroke="#1c1c1c" stroke-width="2.4" stroke-linecap="round" fill="none"/><line x1="-7.5" y1="-32" x2="7.5" y2="-32" stroke="#1c1c1c" stroke-width="2.4" stroke-linecap="round" fill="none"/><line x1="-6.5" y1="-14.2" x2="6.5" y2="-24.2" stroke="#1c1c1c" stroke-width="2.4" stroke-linecap="round" fill="none"/></g><g transform="translate(38.11 22) rotate(120)"><line x1="0" y1="0" x2="0" y2="-32" stroke="#1c1c1c" stroke-width="2.4" stroke-linecap="round" fill="none"/><line x1="-7.5" y1="-32" x2="7.5" y2="-32" stroke="#1c1c1c" stroke-width="2.4" stroke-linecap="round" fill="none"/><line x1="-6.5" y1="-14.2" x2="6.5" y2="-24.2" stroke="#1c1c1c" stroke-width="2.4" stroke-linecap="round" fill="none"/></g><g transform="translate(22 38.11) rotate(150)"><line x1="0" y1="0" x2="0" y2="-32" stroke="#1c1c1c" stroke-width="2.4" stroke-linecap="round" fill="none"/><line x1="-7.5" y1="-32" x2="7.5" y2="-32" stroke="#1c1c1c" stroke-width="2.4" stroke-linecap="round" fill="none"/><line x1="-6.5" y1="-14.2" x2="6.5" y2="-24.2" stroke="#1c1c1c" stroke-width="2.4" stroke-linecap="round" fill="none"/></g><g transform="translate(0 44) rotate(180)"><line x1="0" y1="0" x2="0" y2="-32" stroke="#1c1c1c" stroke-width="2.4" stroke-linecap="round" fill="none"/><line x1="-7.5" y1="-32" x2="7.5" y2="-32" stroke="#1c1c1c" stroke-width="2.4" stroke-linecap="round" fill="none"/><line x1="-6.5" y1="-14.2" x2="6.5" y2="-24.2" stroke="#1c1c1c" stroke-width="2.4" stroke-linecap="round" fill="none"/></g><g transform="translate(-22 38.11) rotate(210)"><line x1="0" y1="0" x2="0" y2="-32" stroke="#1c1c1c" stroke-width="2.4" stroke-linecap="round" fill="none"/><line x1="-7.5" y1="-32" x2="7.5" y2="-32" stroke="#1c1c1c" stroke-width="2.4" stroke-linecap="round" fill="none"/><line x1="-6.5" y1="-14.2" x2="6.5" y2="-24.2" stroke="#1c1c1c" stroke-width="2.4" stroke-linecap="round" fill="none"/></g><g transform="translate(-38.11 22) rotate(240)"><line x1="0" y1="0" x2="0" y2="-32" stroke="#1c1c1c" stroke-width="2.4" stroke-linecap="round" fill="none"/><line x1="-7.5" y1="-32" x2="7.5" y2="-32" stroke="#1c1c1c" stroke-width="2.4" stroke-linecap="round" fill="none"/><line x1="-6.5" y1="-14.2" x2="6.5" y2="-24.2" stroke="#1c1c1c" stroke-width="2.4" stroke-linecap="round" fill="none"/></g><g transform="translate(-44 0) rotate(270)"><line x1="0" y1="0" x2="0" y2="-32" stroke="#1c1c1c" stroke-width="2.4" stroke-linecap="round" fill="none"/><line x1="-7.5" y1="-32" x2="7.5" y2="-32" stroke="#1c1c1c" stroke-width="2.4" stroke-linecap="round" fill="none"/><line x1="-6.5" y1="-14.2" x2="6.5" y2="-24.2" stroke="#1c1c1c" stroke-width="2.4" stroke-linecap="round" fill="none"/></g><g transform="translate(-38.11 -22) rotate(300)"><line x1="0" y1="0" x2="0" y2="-32" stroke="#1c1c1c" stroke-width="2.4" stroke-linecap="round" fill="none"/><line x1="-7.5" y1="-32" x2="7.5" y2="-32" stroke="#1c1c1c" stroke-width="2.4" stroke-linecap="round" fill="none"/><line x1="-6.5" y1="-14.2" x2="6.5" y2="-24.2" stroke="#1c1c1c" stroke-width="2.4" stroke-linecap="round" fill="none"/></g><g transform="translate(-22 -38.11) rotate(330)"><line x1="0" y1="0" x2="0" y2="-32" stroke="#1c1c1c" stroke-width="2.4" stroke-linecap="round" fill="none"/><line x1="-7.5" y1="-32" x2="7.5" y2="-32" stroke="#1c1c1c" stroke-width="2.4" stroke-linecap="round" fill="none"/><line x1="-6.5" y1="-14.2" x2="6.5" y2="-24.2" stroke="#1c1c1c" stroke-width="2.4" stroke-linecap="round" fill="none"/></g><g transform="translate(-46 -120) rotate(0)"><line x1="0" y1="0" x2="0" y2="-32" stroke="#1c1c1c" stroke-width="2.4" stroke-linecap="round" fill="none"/><line x1="-7.5" y1="-32" x2="7.5" y2="-32" stroke="#1c1c1c" stroke-width="2.4" stroke-linecap="round" fill="none"/><line x1="-6.5" y1="-14.2" x2="6.5" y2="-24.2" stroke="#1c1c1c" stroke-width="2.4" stroke-linecap="round" fill="none"/></g><g transform="translate(120 -46) rotate(90)"><line x1="0" y1="0" x2="0" y2="-32" stroke="#1c1c1c" stroke-width="2.4" stroke-linecap="round" fill="none"/><line x1="-7.5" y1="-32" x2="7.5" y2="-32" stroke="#1c1c1c" stroke-width="2.4" stroke-linecap="round" fill="none"/><line x1="-6.5" y1="-14.2" x2="6.5" y2="-24.2" stroke="#1c1c1c" stroke-width="2.4" stroke-linecap="round" fill="none"/></g><g transform="translate(46 120) rotate(180)"><line x1="0" y1="0" x2="0" y2="-32" stroke="#1c1c1c" stroke-width="2.4" stroke-linecap="round" fill="none"/><line x1="-7.5" y1="-32" x2="7.5" y2="-32" stroke="#1c1c1c" stroke-width="2.4" stroke-linecap="round" fill="none"/><line x1="-6.5" y1="-14.2" x2="6.5" y2="-24.2" stroke="#1c1c1c" stroke-width="2.4" stroke-linecap="round" fill="none"/></g><g transform="translate(-120 46) rotate(270)"><line x1="0" y1="0" x2="0" y2="-32" stroke="#1c1c1c" stroke-width="2.4" stroke-linecap="round" fill="none"/><line x1="-7.5" y1="-32" x2="7.5" y2="-32" stroke="#1c1c1c" stroke-width="2.4" stroke-linecap="round" fill="none"/><line x1="-6.5" y1="-14.2" x2="6.5" y2="-24.2" stroke="#1c1c1c" stroke-width="2.4" stroke-linecap="round" fill="none"/></g><g transform="translate(0 -120) rotate(0)"><line x1="0" y1="0" x2="0" y2="-32" stroke="#1c1c1c" stroke-width="2.4" stroke-linecap="round" fill="none"/><line x1="-7.5" y1="-32" x2="7.5" y2="-32" stroke="#1c1c1c" stroke-width="2.4" stroke-linecap="round" fill="none"/><line x1="-6.5" y1="-14.2" x2="6.5" y2="-24.2" stroke="#1c1c1c" stroke-width="2.4" stroke-linecap="round" fill="none"/></g><g transform="translate(120 0) rotate(90)"><line x1="0" y1="0" x2="0" y2="-32" stroke="#1c1c1c" stroke-width="2.4" stroke-linecap="round" fill="none"/><line x1="-7.5" y1="-32" x2="7.5" y2="-32" stroke="#1c1c1c" stroke-width="2.4" stroke-linecap="round" fill="none"/><line x1="-6.5" y1="-14.2" x2="6.5" y2="-24.2" stroke="#1c1c1c" stroke-width="2.4" stroke-linecap="round" fill="none"/></g><g transform="translate(0 120) rotate(180)"><line x1="0" y1="0" x2="0" y2="-32" stroke="#1c1c1c" stroke-width="2.4" stroke-linecap="round" fill="none"/><line x1="-7.5" y1="-32" x2="7.5" y2="-32" stroke="#1c1c1c" stroke-width="2.4" stroke-linecap="round" fill="none"/><line x1="-6.5" y1="-14.2" x2="6.5" y2="-24.2" stroke="#1c1c1c" stroke-width="2.4" stroke-linecap="round" fill="none"/></g><g transform="translate(-120 0) rotate(270)"><line x1="0" y1="0" x2="0" y2="-32" stroke="#1c1c1c" stroke-width="2.4" stroke-linecap="round" fill="none"/><line x1="-7.5" y1="-32" x2="7.5" y2="-32" stroke="#1c1c1c" stroke-width="2.4" stroke-linecap="round" fill="none"/><line x1="-6.5" y1="-14.2" x2="6.5" y2="-24.2" stroke="#1c1c1c" stroke-width="2.4" stroke-linecap="round" fill="none"/></g><g transform="translate(46 -120) rotate(0)"><line x1="0" y1="0" x2="0" y2="-32" stroke="#1c1c1c" stroke-width="2.4" stroke-linecap="round" fill="none"/><line x1="-7.5" y1="-32" x2="7.5" y2="-32" stroke="#1c1c1c" stroke-width="2.4" stroke-linecap="round" fill="none"/><line x1="-6.5" y1="-14.2" x2="6.5" y2="-24.2" stroke="#1c1c1c" stroke-width="2.4" stroke-linecap="round" fill="none"/></g><g transform="translate(120 46) rotate(90)"><line x1="0" y1="0" x2="0" y2="-32" stroke="#1c1c1c" stroke-width="2.4" stroke-linecap="round" fill="none"/><line x1="-7.5" y1="-32" x2="7.5" y2="-32" stroke="#1c1c1c" stroke-width="2.4" stroke-linecap="round" fill="none"/><line x1="-6.5" y1="-14.2" x2="6.5" y2="-24.2" stroke="#1c1c1c" stroke-width="2.4" stroke-linecap="round" fill="none"/></g><g transform="translate(-46 120) rotate(180)"><line x1="0" y1="0" x2="0" y2="-32" stroke="#1c1c1c" stroke-width="2.4" stroke-linecap="round" fill="none"/><line x1="-7.5" y1="-32" x2="7.5" y2="-32" stroke="#1c1c1c" stroke-width="2.4" stroke-linecap="round" fill="none"/><line x1="-6.5" y1="-14.2" x2="6.5" y2="-24.2" stroke="#1c1c1c" stroke-width="2.4" stroke-linecap="round" fill="none"/></g><g transform="translate(-120 -46) rotate(270)"><line x1="0" y1="0" x2="0" y2="-32" stroke="#1c1c1c" stroke-width="2.4" stroke-linecap="round" fill="none"/><line x1="-7.5" y1="-32" x2="7.5" y2="-32" stroke="#1c1c1c" stroke-width="2.4" stroke-linecap="round" fill="none"/><line x1="-6.5" y1="-14.2" x2="6.5" y2="-24.2" stroke="#1c1c1c" stroke-width="2.4" stroke-linecap="round" fill="none"/></g><g transform="translate(122 -122) rotate(45)"><g transform="rotate(-26)"><line x1="0" y1="0" x2="0" y2="-32" stroke="#1c1c1c" stroke-width="2.4" stroke-linecap="round" fill="none"/><line x1="-7.5" y1="-32" x2="7.5" y2="-32" stroke="#1c1c1c" stroke-width="2.4" stroke-linecap="round" fill="none"/><line x1="-6.5" y1="-14.2" x2="6.5" y2="-24.2" stroke="#1c1c1c" stroke-width="2.4" stroke-linecap="round" fill="none"/></g><g transform="rotate(0)"><line x1="0" y1="0" x2="0" y2="-32" stroke="#1c1c1c" stroke-width="2.4" stroke-linecap="round" fill="none"/><line x1="-7.5" y1="-32" x2="7.5" y2="-32" stroke="#1c1c1c" stroke-width="2.4" stroke-linecap="round" fill="none"/><line x1="-6.5" y1="-14.2" x2="6.5" y2="-24.2" stroke="#1c1c1c" stroke-width="2.4" stroke-linecap="round" fill="none"/></g><g transform="rotate(26)"><line x1="0" y1="0" x2="0" y2="-32" stroke="#1c1c1c" stroke-width="2.4" stroke-linecap="round" fill="none"/><line x1="-7.5" y1="-32" x2="7.5" y2="-32" stroke="#1c1c1c" stroke-width="2.4" stroke-linecap="round" fill="none"/><line x1="-6.5" y1="-14.2" x2="6.5" y2="-24.2" stroke="#1c1c1c" stroke-width="2.4" stroke-linecap="round" fill="none"/></g></g><g transform="translate(122 122) rotate(135)"><g transform="rotate(-26)"><line x1="0" y1="0" x2="0" y2="-32" stroke="#1c1c1c" stroke-width="2.4" stroke-linecap="round" fill="none"/><line x1="-7.5" y1="-32" x2="7.5" y2="-32" stroke="#1c1c1c" stroke-width="2.4" stroke-linecap="round" fill="none"/><line x1="-6.5" y1="-14.2" x2="6.5" y2="-24.2" stroke="#1c1c1c" stroke-width="2.4" stroke-linecap="round" fill="none"/></g><g transform="rotate(0)"><line x1="0" y1="0" x2="0" y2="-32" stroke="#1c1c1c" stroke-width="2.4" stroke-linecap="round" fill="none"/><line x1="-7.5" y1="-32" x2="7.5" y2="-32" stroke="#1c1c1c" stroke-width="2.4" stroke-linecap="round" fill="none"/><line x1="-6.5" y1="-14.2" x2="6.5" y2="-24.2" stroke="#1c1c1c" stroke-width="2.4" stroke-linecap="round" fill="none"/></g><g transform="rotate(26)"><line x1="0" y1="0" x2="0" y2="-32" stroke="#1c1c1c" stroke-width="2.4" stroke-linecap="round" fill="none"/><line x1="-7.5" y1="-32" x2="7.5" y2="-32" stroke="#1c1c1c" stroke-width="2.4" stroke-linecap="round" fill="none"/><line x1="-6.5" y1="-14.2" x2="6.5" y2="-24.2" stroke="#1c1c1c" stroke-width="2.4" stroke-linecap="round" fill="none"/></g></g><g transform="translate(-122 122) rotate(225)"><g transform="rotate(-26)"><line x1="0" y1="0" x2="0" y2="-32" stroke="#1c1c1c" stroke-width="2.4" stroke-linecap="round" fill="none"/><line x1="-7.5" y1="-32" x2="7.5" y2="-32" stroke="#1c1c1c" stroke-width="2.4" stroke-linecap="round" fill="none"/><line x1="-6.5" y1="-14.2" x2="6.5" y2="-24.2" stroke="#1c1c1c" stroke-width="2.4" stroke-linecap="round" fill="none"/></g><g transform="rotate(0)"><line x1="0" y1="0" x2="0" y2="-32" stroke="#1c1c1c" stroke-width="2.4" stroke-linecap="round" fill="none"/><line x1="-7.5" y1="-32" x2="7.5" y2="-32" stroke="#1c1c1c" stroke-width="2.4" stroke-linecap="round" fill="none"/><line x1="-6.5" y1="-14.2" x2="6.5" y2="-24.2" stroke="#1c1c1c" stroke-width="2.4" stroke-linecap="round" fill="none"/></g><g transform="rotate(26)"><line x1="0" y1="0" x2="0" y2="-32" stroke="#1c1c1c" stroke-width="2.4" stroke-linecap="round" fill="none"/><line x1="-7.5" y1="-32" x2="7.5" y2="-32" stroke="#1c1c1c" stroke-width="2.4" stroke-linecap="round" fill="none"/><line x1="-6.5" y1="-14.2" x2="6.5" y2="-24.2" stroke="#1c1c1c" stroke-width="2.4" stroke-linecap="round" fill="none"/></g></g><g transform="translate(-122 -122) rotate(315)"><g transform="rotate(-26)"><line x1="0" y1="0" x2="0" y2="-32" stroke="#1c1c1c" stroke-width="2.4" stroke-linecap="round" fill="none"/><line x1="-7.5" y1="-32" x2="7.5" y2="-32" stroke="#1c1c1c" stroke-width="2.4" stroke-linecap="round" fill="none"/><line x1="-6.5" y1="-14.2" x2="6.5" y2="-24.2" stroke="#1c1c1c" stroke-width="2.4" stroke-linecap="round" fill="none"/></g><g transform="rotate(0)"><line x1="0" y1="0" x2="0" y2="-32" stroke="#1c1c1c" stroke-width="2.4" stroke-linecap="round" fill="none"/><line x1="-7.5" y1="-32" x2="7.5" y2="-32" stroke="#1c1c1c" stroke-width="2.4" stroke-linecap="round" fill="none"/><line x1="-6.5" y1="-14.2" x2="6.5" y2="-24.2" stroke="#1c1c1c" stroke-width="2.4" stroke-linecap="round" fill="none"/></g><g transform="rotate(26)"><line x1="0" y1="0" x2="0" y2="-32" stroke="#1c1c1c" stroke-width="2.4" stroke-linecap="round" fill="none"/><line x1="-7.5" y1="-32" x2="7.5" y2="-32" stroke="#1c1c1c" stroke-width="2.4" stroke-linecap="round" fill="none"/><line x1="-6.5" y1="-14.2" x2="6.5" y2="-24.2" stroke="#1c1c1c" stroke-width="2.4" stroke-linecap="round" fill="none"/></g></g></g><g class="legend" transform="translate(-164.35 220.35)"><text x="0" y="-12" font-family="system-ui,Segoe UI,Arial" font-size="15" font-weight="700" fill="#1c1c1c">Legend</text><svg x="0" y="0" width="30" height="30" viewBox="-22 -22 44 44"><circle cx="0" cy="0" r="15" stroke="#1c1c1c" stroke-width="2.4" stroke-linecap="round" fill="none"/></svg><text x="40" y="20" font-family="system-ui,Segoe UI,Arial" font-size="14" fill="#1c1c1c">Magic ring (ring)</text><svg x="0" y="34" width="30" height="30" viewBox="-23 -39 46 46"><line x1="0" y1="0" x2="0" y2="-32" stroke="#1c1c1c" stroke-width="2.4" stroke-linecap="round" fill="none"/><line x1="-7.5" y1="-32" x2="7.5" y2="-32" stroke="#1c1c1c" stroke-width="2.4" stroke-linecap="round" fill="none"/><line x1="-6.5" y1="-14.2" x2="6.5" y2="-24.2" stroke="#1c1c1c" stroke-width="2.4" stroke-linecap="round" fill="none"/></svg><text x="40" y="54" font-family="system-ui,Segoe UI,Arial" font-size="14" fill="#1c1c1c">Double crochet (dc)</text><svg x="0" y="68" width="30" height="30" viewBox="-27.77 -42.15 55.54 55.54"><g transform="rotate(-26)"><line x1="0" y1="0" x2="0" y2="-32" stroke="#1c1c1c" stroke-width="2.4" stroke-linecap="round" fill="none"/><line x1="-7.5" y1="-32" x2="7.5" y2="-32" stroke="#1c1c1c" stroke-width="2.4" stroke-linecap="round" fill="none"/><line x1="-6.5" y1="-14.2" x2="6.5" y2="-24.2" stroke="#1c1c1c" stroke-width="2.4" stroke-linecap="round" fill="none"/></g><g transform="rotate(0)"><line x1="0" y1="0" x2="0" y2="-32" stroke="#1c1c1c" stroke-width="2.4" stroke-linecap="round" fill="none"/><line x1="-7.5" y1="-32" x2="7.5" y2="-32" stroke="#1c1c1c" stroke-width="2.4" stroke-linecap="round" fill="none"/><line x1="-6.5" y1="-14.2" x2="6.5" y2="-24.2" stroke="#1c1c1c" stroke-width="2.4" stroke-linecap="round" fill="none"/></g><g transform="rotate(26)"><line x1="0" y1="0" x2="0" y2="-32" stroke="#1c1c1c" stroke-width="2.4" stroke-linecap="round" fill="none"/><line x1="-7.5" y1="-32" x2="7.5" y2="-32" stroke="#1c1c1c" stroke-width="2.4" stroke-linecap="round" fill="none"/><line x1="-6.5" y1="-14.2" x2="6.5" y2="-24.2" stroke="#1c1c1c" stroke-width="2.4" stroke-linecap="round" fill="none"/></g></svg><text x="40" y="88" font-family="system-ui,Segoe UI,Arial" font-size="14" fill="#1c1c1c">3 dc shell</text></g></svg>