<svg xmlns="http://www.w3.org/2000/svg" width="510.5" height="745.29" viewBox="-252.5 -133 510.5 745.29"><rect x="-252.5" y="-133" width="510.5" height="745.29" fill="#ffffff"/><text x="2.75" y="-99" text-anchor="middle" font-family="system-ui,Segoe UI,Arial" font-size="26" font-weight="800" fill="#1c1c1c">Threadwick symbols</text><g class="stitches"><g transform="translate(-210 0) rotate(0)"><ellipse cx="0" cy="0" rx="9.5" ry="4.6" stroke="#1c1c1c" stroke-width="2.4" stroke-linecap="round" fill="none"/></g><g transform="translate(-150 0) rotate(0)"><circle cx="0" cy="0" r="3.4" fill="#1c1c1c"/></g><g transform="translate(-90 0) rotate(0)"><line x1="0" y1="0" x2="0" y2="-16" stroke="#1c1c1c" stroke-width="2.4" stroke-linecap="round" fill="none"/><line x1="-7.5" y1="-8" x2="7.5" y2="-8" stroke="#1c1c1c" stroke-width="2.4" stroke-linecap="round" fill="none"/></g><g transform="translate(-30 0) rotate(0)"><line x1="0" y1="0" x2="0" y2="-23" stroke="#1c1c1c" stroke-width="2.4" stroke-linecap="round" fill="none"/><line x1="-7.5" y1="-23" x2="7.5" y2="-23" stroke="#1c1c1c" stroke-width="2.4" stroke-linecap="round" fill="none"/></g><g transform="translate(30 0) rotate(0)"><line x1="0" y1="0" x2="0" y2="-32" stroke="#1c1c1c" stroke-width="2.4" stroke-linecap="round" fill="none"/><line x1="-7.5" y1="-32" x2="7.5" y2="-32" stroke="#1c1c1c" stroke-width="2.4" stroke-linecap="round" fill="none"/><line x1="-6.5" y1="-14.2" x2="6.5" y2="-24.2" stroke="#1c1c1c" stroke-width="2.4" stroke-linecap="round" fill="none"/></g><g transform="translate(90 0) rotate(0)"><line x1="0" y1="0" x2="0" y2="-40" stroke="#1c1c1c" stroke-width="2.4" stroke-linecap="round" fill="none"/><line x1="-7.5" y1="-40" x2="7.5" y2="-40" stroke="#1c1c1c" stroke-width="2.4" stroke-linecap="round" fill="none"/><line x1="-6.5" y1="-13.4" x2="6.5" y2="-23.4" stroke="#1c1c1c" stroke-width="2.4" stroke-linecap="round" fill="none"/><line x1="-6.5" y1="-26.2" x2="6.5" y2="-36.2" stroke="#1c1c1c" stroke-width="2.4" stroke-linecap="round" fill="none"/></g><g transform="translate(150 0) rotate(0)"><line x1="0" y1="0" x2="0" y2="-48" stroke="#1c1c1c" stroke-width="2.4" stroke-linecap="round" fill="none"/><line x1="-7.5" y1="-48" x2="7.5" y2="-48" stroke="#1c1c1c" stroke-width="2.4" stroke-linecap="round" fill="none"/><line x1="-6.5" y1="-17.08" x2="6.5" y2="-27.08" stroke="#1c1c1c" stroke-width="2.4" stroke-linecap="round" fill="none"/><line x1="-6.5" y1="-24.76" x2="6.5" y2="-34.76" stroke="#1c1c1c" stroke-width="2.4" stroke-linecap="round" fill="none"/><line x1="-6.5" y1="-32.44" x2="6.5" y2="-42.44" stroke="#1c1c1c" stroke-width="2.4" stroke-linecap="round" fill="none"/></g><g transform="translate(210 0) rotate(0)"><circle cx="0" cy="0" r="15" stroke="#1c1c1c" stroke-width="2.4" stroke-linecap="round" fill="none"/></g><g transform="translate(-120 120) rotate(0)"><g transform="rotate(-17)"><line x1="0" y1="0" x2="0" y2="-32" stroke="#1c1c1c" stroke-width="2.4" stroke-linecap="round" fill="none"/><line x1="-7.5" y1="-32" x2="7.5" y2="-32" stroke="#1c1c1c" stroke-width="2.4" stroke-linecap="round" fill="none"/><line x1="-6.5" y1="-14.2" x2="6.5" y2="-24.2" stroke="#1c1c1c" stroke-width="2.4" stroke-linecap="round" fill="none"/></g><g transform="rotate(17)"><line x1="0" y1="0" x2="0" y2="-32" stroke="#1c1c1c" stroke-width="2.4" stroke-linecap="round" fill="none"/><line x1="-7.5" y1="-32" x2="7.5" y2="-32" stroke="#1c1c1c" stroke-width="2.4" stroke-linecap="round" fill="none"/><line x1="-6.5" y1="-14.2" x2="6.5" y2="-24.2" stroke="#1c1c1c" stroke-width="2.4" stroke-linecap="round" fill="none"/></g></g><g transform="translate(-40 120) rotate(0)"><g transform="rotate(-26)"><line x1="0" y1="0" x2="0" y2="-32" stroke="#1c1c1c" stroke-width="2.4" stroke-linecap="round" fill="none"/><line x1="-7.5" y1="-32" x2="7.5" y2="-32" stroke="#1c1c1c" stroke-width="2.4" stroke-linecap="round" fill="none"/><line x1="-6.5" y1="-14.2" x2="6.5" y2="-24.2" stroke="#1c1c1c" stroke-width="2.4" stroke-linecap="round" fill="none"/></g><g transform="rotate(0)"><line x1="0" y1="0" x2="0" y2="-32" stroke="#1c1c1c" stroke-width="2.4" stroke-linecap="round" fill="none"/><line x1="-7.5" y1="-32" x2="7.5" y2="-32" stroke="#1c1c1c" stroke-width="2.4" stroke-linecap="round" fill="none"/><line x1="-6.5" y1="-14.2" x2="6.5" y2="-24.2" stroke="#1c1c1c" stroke-width="2.4" stroke-linecap="round" fill="none"/></g><g transform="rotate(26)"><line x1="0" y1="0" x2="0" y2="-32" stroke="#1c1c1c" stroke-width="2.4" stroke-linecap="round" fill="none"/><line x1="-7.5" y1="-32" x2="7.5" y2="-32" stroke="#1c1c1c" stroke-width="2.4" stroke-linecap="round" fill="none"/><line x1="-6.5" y1="-14.2" x2="6.5" y2="-24.2" stroke="#1c1c1c" stroke-width="2.4" stroke-linecap="round" fill="none"/></g></g><g transform="translate(40 120) rotate(0)"><path d="M 0 0 Q -12.2 -16 0 -32" stroke="#1c1c1c" stroke-width="2.4" stroke-linecap="round" fill="none"/><path d="M 0 0 Q 0 -16 0 -32" stroke="#1c1c1c" stroke-width="2.4" stroke-linecap="round" fill="none"/><path d="M 0 0 Q 12.2 -16 0 -32" stroke="#1c1c1c" stroke-width="2.4" stroke-linecap="round" fill="none"/><line x1="-6" y1="-32" x2="6" y2="-32" stroke="#1c1c1c" stroke-width="2.4" stroke-linecap="round" fill="none"/></g><g transform="translate(120 120) rotate(0)"><line x1="-16" y1="0" x2="0" y2="-32" stroke="#1c1c1c" stroke-width="2.4" stroke-linecap="round" fill="none"/><line x1="-12.72" y1="-13.56" x2="-0.72" y2="-23.56" stroke="#1c1c1c" stroke-width="2.4" stroke-linecap="round" fill="none"/><line x1="0" y1="0" x2="0" y2="-32" stroke="#1c1c1c" stroke-width="2.4" stroke-linecap="round" fill="none"/><line x1="-6" y1="-13.56" x2="6" y2="-23.56" stroke="#1c1c1c" stroke-width="2.4" stroke-linecap="round" fill="none"/><line x1="16" y1="0" x2="0" y2="-32" stroke="#1c1c1c" stroke-width="2.4" stroke-linecap="round" fill="none"/><line x1="0.72" y1="-13.56" x2="12.72" y2="-23.56" stroke="#1c1c1c" stroke-width="2.4" stroke-linecap="round" fill="none"/></g></g><g class="legend" transform="translate(-224.5 184.29)"><text x="0" y="-12" font-family="system-ui,Segoe UI,Arial" font-size="15" font-weight="700" fill="#1c1c1c">Legend</text><svg x="0" y="0" width="30" height="30" viewBox="-16.5 -16.5 33 33"><ellipse cx="0" cy="0" rx="9.5" ry="4.6" stroke="#1c1c1c" stroke-width="2.4" stroke-linecap="round" fill="none"/></svg><text x="40" y="20" font-family="system-ui,Segoe UI,Arial" font-size="14" fill="#1c1c1c">Chain (ch)</text><svg x="0" y="34" width="30" height="30" viewBox="-11 -11 22 22"><circle cx="0" cy="0" r="3.4" fill="#1c1c1c"/></svg><text x="40" y="54" font-family="system-ui,Segoe UI,Arial" font-size="14" fill="#1c1c1c">Slip stitch (sl st)</text><svg x="0" y="68" width="30" height="30" viewBox="-15 -23 30 30"><line x1="0" y1="0" x2="0" y2="-16" stroke="#1c1c1c" stroke-width="2.4" stroke-linecap="round" fill="none"/><line x1="-7.5" y1="-8" x2="7.5" y2="-8" stroke="#1c1c1c" stroke-width="2.4" stroke-linecap="round" fill="none"/></svg><text x="40" y="88" font-family="system-ui,Segoe UI,Arial" font-size="14" fill="#1c1c1c">Single crochet (sc)</text><svg x="0" y="102" width="30" height="30" viewBox="-18.5 -30 37 37"><line x1="0" y1="0" x2="0" y2="-23" stroke="#1c1c1c" stroke-width="2.4" stroke-linecap="round" fill="none"/><line x1="-7.5" y1="-23" x2="7.5" y2="-23" stroke="#1c1c1c" stroke-width="2.4" stroke-linecap="round" fill="none"/></svg><text x="40" y="122" font-family="system-ui,Segoe UI,Arial" font-size="14" fill="#1c1c1c">Half double crochet (hdc)</text><svg x="0" y="136" width="30" height="30" viewBox="-23 -39 46 46"><line x1="0" y1="0" x2="0" y2="-32" stroke="#1c1c1c" stroke-width="2.4" stroke-linecap="round" fill="none"/><line x1="-7.5" y1="-32" x2="7.5" y2="-32" stroke="#1c1c1c" stroke-width="2.4" stroke-linecap="round" fill="none"/><line x1="-6.5" y1="-14.2" x2="6.5" y2="-24.2" stroke="#1c1c1c" stroke-width="2.4" stroke-linecap="round" fill="none"/></svg><text x="40" y="156" font-family="system-ui,Segoe UI,Arial" font-size="14" fill="#1c1c1c">Double crochet (dc)</text><svg x="0" y="170" width="30" height="30" viewBox="-27 -47 54 54"><line x1="0" y1="0" x2="0" y2="-40" stroke="#1c1c1c" stroke-width="2.4" stroke-linecap="round" fill="none"/><line x1="-7.5" y1="-40" x2="7.5" y2="-40" stroke="#1c1c1c" stroke-width="2.4" stroke-linecap="round" fill="none"/><line x1="-6.5" y1="-13.4" x2="6.5" y2="-23.4" stroke="#1c1c1c" stroke-width="2.4" stroke-linecap="round" fill="none"/><line x1="-6.5" y1="-26.2" x2="6.5" y2="-36.2" stroke="#1c1c1c" stroke-width="2.4" stroke-linecap="round" fill="none"/></svg><text x="40" y="190" font-family="system-ui,Segoe UI,Arial" font-size="14" fill="#1c1c1c">Treble crochet (tr)</text><svg x="0" y="204" width="30" height="30" viewBox="-31 -55 62 62"><line x1="0" y1="0" x2="0" y2="-48" stroke="#1c1c1c" stroke-width="2.4" stroke-linecap="round" fill="none"/><line x1="-7.5" y1="-48" x2="7.5" y2="-48" stroke="#1c1c1c" stroke-width="2.4" stroke-linecap="round" fill="none"/><line x1="-6.5" y1="-17.08" x2="6.5" y2="-27.08" stroke="#1c1c1c" stroke-width="2.4" stroke-linecap="round" fill="none"/><line x1="-6.5" y1="-24.76" x2="6.5" y2="-34.76" stroke="#1c1c1c" stroke-width="2.4" stroke-linecap="round" fill="none"/><line x1="-6.5" y1="-32.44" x2="6.5" y2="-42.44" stroke="#1c1c1c" stroke-width="2.4" stroke-linecap="round" fill="none"/></svg><text x="40" y="224" font-family="system-ui,Segoe UI,Arial" font-size="14" fill="#1c1c1c">Double treble (dtr)</text><svg x="0" y="238" width="30" height="30" viewBox="-22 -22 44 44"><circle cx="0" cy="0" r="15" stroke="#1c1c1c" stroke-width="2.4" stroke-linecap="round" fill="none"/></svg><text x="40" y="258" font-family="system-ui,Segoe UI,Arial" font-size="14" fill="#1c1c1c">Magic ring (ring)</text><svg x="0" y="272" width="30" height="30" viewBox="-24.49 -39.79 48.99 48.99"><g transform="rotate(-17)"><line x1="0" y1="0" x2="0" y2="-32" stroke="#1c1c1c" stroke-width="2.4" stroke-linecap="round" fill="none"/><line x1="-7.5" y1="-32" x2="7.5" y2="-32" stroke="#1c1c1c" stroke-width="2.4" stroke-linecap="round" fill="none"/><line x1="-6.5" y1="-14.2" x2="6.5" y2="-24.2" stroke="#1c1c1c" stroke-width="2.4" stroke-linecap="round" fill="none"/></g><g transform="rotate(17)"><line x1="0" y1="0" x2="0" y2="-32" stroke="#1c1c1c" stroke-width="2.4" stroke-linecap="round" fill="none"/><line x1="-7.5" y1="-32" x2="7.5" y2="-32" stroke="#1c1c1c" stroke-width="2.4" stroke-linecap="round" fill="none"/><line x1="-6.5" y1="-14.2" x2="6.5" y2="-24.2" stroke="#1c1c1c" stroke-width="2.4" stroke-linecap="round" fill="none"/></g></svg><text x="40" y="292" font-family="system-ui,Segoe UI,Arial" font-size="14" fill="#1c1c1c">2 dc in 1 (V)</text><svg x="0" y="306" width="30" height="30" viewBox="-27.77 -42.15 55.54 55.54"><g transform="rotate(-26)"><line x1="0" y1="0" x2="0" y2="-32" stroke="#1c1c1c" stroke-width="2.4" stroke-linecap="round" fill="none"/><line x1="-7.5" y1="-32" x2="7.5" y2="-32" stroke="#1c1c1c" stroke-width="2.4" stroke-linecap="round" fill="none"/><line x1="-6.5" y1="-14.2" x2="6.5" y2="-24.2" stroke="#1c1c1c" stroke-width="2.4" stroke-linecap="round" fill="none"/></g><g transform="rotate(0)"><line x1="0" y1="0" x2="0" y2="-32" stroke="#1c1c1c" stroke-width="2.4" stroke-linecap="round" fill="none"/><line x1="-7.5" y1="-32" x2="7.5" y2="-32" stroke="#1c1c1c" stroke-width="2.4" stroke-linecap="round" fill="none"/><line x1="-6.5" y1="-14.2" x2="6.5" y2="-24.2" stroke="#1c1c1c" stroke-width="2.4" stroke-linecap="round" fill="none"/></g><g transform="rotate(26)"><line x1="0" y1="0" x2="0" y2="-32" stroke="#1c1c1c" stroke-width="2.4" stroke-linecap="round" fill="none"/><line x1="-7.5" y1="-32" x2="7.5" y2="-32" stroke="#1c1c1c" stroke-width="2.4" stroke-linecap="round" fill="none"/><line x1="-6.5" y1="-14.2" x2="6.5" y2="-24.2" stroke="#1c1c1c" stroke-width="2.4" stroke-linecap="round" fill="none"/></g></svg><text x="40" y="326" font-family="system-ui,Segoe UI,Arial" font-size="14" fill="#1c1c1c">3 dc shell</text><svg x="0" y="340" width="30" height="30" viewBox="-23 -39 46 46"><path d="M 0 0 Q -12.2 -16 0 -32" stroke="#1c1c1c" stroke-width="2.4" stroke-linecap="round" fill="none"/><path d="M 0 0 Q 0 -16 0 -32" stroke="#1c1c1c" stroke-width="2.4" stroke-linecap="round" fill="none"/><path d="M 0 0 Q 12.2 -16 0 -32" stroke="#1c1c1c" stroke-width="2.4" stroke-linecap="round" fill="none"/><line x1="-6" y1="-32" x2="6" y2="-32" stroke="#1c1c1c" stroke-width="2.4" stroke-linecap="round" fill="none"/></svg><text x="40" y="360" font-family="system-ui,Segoe UI,Arial" font-size="14" fill="#1c1c1c">3 dc cluster</text><svg x="0" y="374" width="30" height="30" viewBox="-23 -39 46 46"><line x1="-16" y1="0" x2="0" y2="-32" stroke="#1c1c1c" stroke-width="2.4" stroke-linecap="round" fill="none"/><line x1="-12.72" y1="-13.56" x2="-0.72" y2="-23.56" stroke="#1c1c1c" stroke-width="2.4" stroke-linecap="round" fill="none"/><line x1="0" y1="0" x2="0" y2="-32" stroke="#1c1c1c" stroke-width="2.4" stroke-linecap="round" fill="none"/><line x1="-6" y1="-13.56" x2="6" y2="-23.56" stroke="#1c1c1c" stroke-width="2.4" stroke-linecap="round" fill="none"/><line x1="16" y1="0" x2="0" y2="-32" stroke="#1c1c1c" stroke-width="2.4" stroke-linecap="round" fill="none"/><line x1="0.72" y1="-13.56" x2="12.72" y2="-23.56" stroke="#1c1c1c" stroke-width="2.4" stroke-linecap="round" fill="none"/></svg><text x="40" y="394" font-family="system-ui,Segoe UI,Arial" font-size="14" fill="#1c1c1c">3 dc together</text></g></svg>